<svg width="18" height="18" viewBox="0 0 18 18" fill="none" xmlns="http://www.w3.org/2000/svg">
<path d="M14.25 15.0002H3.75C2.7558 14.999 1.80267 14.6036 1.09966 13.9006C0.396661 13.1976 0.00119089 12.2444 0 11.2502L0 6.75023C0.00119089 5.75603 0.396661 4.8029 1.09966 4.09989C1.80267 3.39689 2.7558 3.00142 3.75 3.00023H14.25C15.2442 3.00142 16.1973 3.39689 16.9003 4.09989C17.6033 4.8029 17.9988 5.75603 18 6.75023V11.2502C17.9988 12.2444 17.6033 13.1976 16.9003 13.9006C16.1973 14.6036 15.2442 14.999 14.25 15.0002ZM3.75 4.50023C3.15326 4.50023 2.58097 4.73728 2.15901 5.15924C1.73705 5.5812 1.5 6.15349 1.5 6.75023V11.2502C1.5 11.847 1.73705 12.4193 2.15901 12.8412C2.58097 13.2632 3.15326 13.5002 3.75 13.5002H14.25C14.8467 13.5002 15.419 13.2632 15.841 12.8412C16.2629 12.4193 16.5 11.847 16.5 11.2502V6.75023C16.5 6.15349 16.2629 5.5812 15.841 5.15924C15.419 4.73728 14.8467 4.50023 14.25 4.50023H3.75ZM9 12.0002C8.40666 12.0002 7.82664 11.8243 7.33329 11.4946C6.83994 11.165 6.45542 10.6965 6.22836 10.1483C6.0013 9.6001 5.94189 8.9969 6.05764 8.41496C6.1734 7.83301 6.45912 7.29847 6.87868 6.87891C7.29824 6.45935 7.83279 6.17363 8.41473 6.05787C8.99667 5.94212 9.59987 6.00153 10.1481 6.22859C10.6962 6.45565 11.1648 6.84017 11.4944 7.33352C11.8241 7.82687 12 8.40689 12 9.00023C12 9.79588 11.6839 10.5589 11.1213 11.1215C10.5587 11.6842 9.79565 12.0002 9 12.0002ZM9 7.50023C8.70333 7.50023 8.41332 7.5882 8.16665 7.75302C7.91997 7.91785 7.72771 8.15211 7.61418 8.4262C7.50065 8.70029 7.47094 9.00189 7.52882 9.29286C7.5867 9.58384 7.72956 9.85111 7.93934 10.0609C8.14912 10.2707 8.41639 10.4135 8.70737 10.4714C8.99834 10.5293 9.29994 10.4996 9.57403 10.386C9.84811 10.2725 10.0824 10.0803 10.2472 9.83358C10.412 9.58691 10.5 9.2969 10.5 9.00023C10.5 8.6024 10.342 8.22087 10.0607 7.93957C9.77936 7.65826 9.39782 7.50023 9 7.50023ZM3.75 6.00023C3.60166 6.00023 3.45666 6.04422 3.33332 6.12663C3.20999 6.20904 3.11386 6.32617 3.05709 6.46322C3.00032 6.60026 2.98547 6.75106 3.01441 6.89655C3.04335 7.04203 3.11478 7.17567 3.21967 7.28056C3.32456 7.38545 3.4582 7.45688 3.60368 7.48582C3.74917 7.51476 3.89997 7.4999 4.03701 7.44314C4.17406 7.38637 4.29119 7.29024 4.3736 7.16691C4.45601 7.04357 4.5 6.89856 4.5 6.75023C4.5 6.55132 4.42098 6.36055 4.28033 6.2199C4.13968 6.07925 3.94891 6.00023 3.75 6.00023ZM13.5 6.75023C13.5 6.89856 13.544 7.04357 13.6264 7.16691C13.7088 7.29024 13.8259 7.38637 13.963 7.44314C14.1 7.4999 14.2508 7.51476 14.3963 7.48582C14.5418 7.45688 14.6754 7.38545 14.7803 7.28056C14.8852 7.17567 14.9566 7.04203 14.9856 6.89655C15.0145 6.75106 14.9997 6.60026 14.9429 6.46322C14.8861 6.32617 14.79 6.20904 14.6667 6.12663C14.5433 6.04422 14.3983 6.00023 14.25 6.00023C14.0511 6.00023 13.8603 6.07925 13.7197 6.2199C13.579 6.36055 13.5 6.55132 13.5 6.75023ZM3.75 10.5002C3.60166 10.5002 3.45666 10.5442 3.33332 10.6266C3.20999 10.709 3.11386 10.8262 3.05709 10.9632C3.00032 11.1003 2.98547 11.2511 3.01441 11.3965C3.04335 11.542 3.11478 11.6757 3.21967 11.7806C3.32456 11.8854 3.4582 11.9569 3.60368 11.9858C3.74917 12.0148 3.89997 11.9999 4.03701 11.9431C4.17406 11.8864 4.29119 11.7902 4.3736 11.6669C4.45601 11.5436 4.5 11.3986 4.5 11.2502C4.5 11.0513 4.42098 10.8606 4.28033 10.7199C4.13968 10.5792 3.94891 10.5002 3.75 10.5002ZM13.5 11.2502C13.5 11.3986 13.544 11.5436 13.6264 11.6669C13.7088 11.7902 13.8259 11.8864 13.963 11.9431C14.1 11.9999 14.2508 12.0148 14.3963 11.9858C14.5418 11.9569 14.6754 11.8854 14.7803 11.7806C14.8852 11.6757 14.9566 11.542 14.9856 11.3965C15.0145 11.2511 14.9997 11.1003 14.9429 10.9632C14.8861 10.8262 14.79 10.709 14.6667 10.6266C14.5433 10.5442 14.3983 10.5002 14.25 10.5002C14.0511 10.5002 13.8603 10.5792 13.7197 10.7199C13.579 10.8606 13.5 11.0513 13.5 11.2502Z" fill="#F4F3EF"/>
</svg>
