<svg width="20" height="20" viewBox="0 0 20 20" fill="none" xmlns="http://www.w3.org/2000/svg">
<path d="M15.1454 12.8239L13.0984 11.6474L16.3925 9.20037L18.416 10.3768L15.1454 12.8239ZM10.6984 9.95331L13.1454 8.09449L6.65131 4.35331L5.23955 6.80037L10.6984 9.95331ZM2.41602 17.5298V15.6474H7.1219V10.0474L4.29837 8.4239C3.84347 8.15724 3.54951 7.777 3.41649 7.2832C3.28347 6.78939 3.34998 6.31473 3.61602 5.8592L5.02778 3.41214C5.29445 2.95724 5.675 2.66327 6.16943 2.53025C6.66386 2.39724 7.13821 2.46375 7.59249 2.72978L16.5572 7.90625L10.816 12.1886L9.00425 11.1533V15.6474C9.00425 16.1651 8.81978 16.6084 8.45084 16.9773C8.0819 17.3463 7.63892 17.5304 7.1219 17.5298H2.41602Z" fill="#999894"/>
</svg>
