<svg width="18" height="24" viewBox="0 0 18 24" fill="none" xmlns="http://www.w3.org/2000/svg">
<path d="M17.9967 10.2925V17.2483C17.9955 18.2423 17.6001 19.1952 16.8972 19.8981C16.1943 20.601 15.2414 20.9964 14.2474 20.9976H13.4975C13.2986 20.9976 13.1079 20.9186 12.9673 20.7779C12.8266 20.6373 12.7476 20.4466 12.7476 20.2477C12.7476 20.0488 12.8266 19.8581 12.9673 19.7175C13.1079 19.5768 13.2986 19.4978 13.4975 19.4978H14.2474C14.844 19.4978 15.4162 19.2608 15.8381 18.8389C16.2599 18.4171 16.4969 17.8449 16.4969 17.2483V10.2925C16.497 9.9243 16.4066 9.56168 16.2337 9.23653C16.0609 8.91137 15.8109 8.63361 15.5056 8.42764L10.2566 4.88605C9.8857 4.6332 9.44722 4.49796 8.99833 4.49796C8.54945 4.49796 8.11097 4.6332 7.74007 4.88605L2.49104 8.42764C2.18579 8.63361 1.93577 8.91137 1.76292 9.23653C1.59008 9.56168 1.4997 9.9243 1.49972 10.2925V17.2483C1.49972 17.8449 1.73673 18.4171 2.15861 18.8389C2.58049 19.2608 3.15268 19.4978 3.74931 19.4978H4.49917C4.69804 19.4978 4.88877 19.5768 5.0294 19.7175C5.17003 19.8581 5.24903 20.0488 5.24903 20.2477C5.24903 20.4466 5.17003 20.6373 5.0294 20.7779C4.88877 20.9186 4.69804 20.9976 4.49917 20.9976H3.74931C2.7553 20.9964 1.80234 20.601 1.09946 19.8981C0.396591 19.1952 0.00119361 18.2423 2.93726e-06 17.2483V10.2925C-0.000765576 9.67895 0.149284 9.07456 0.43695 8.53258C0.724616 7.99059 1.14108 7.52761 1.6497 7.18437L6.89872 3.64203C7.51756 3.22207 8.24821 2.99756 8.99608 2.99756C9.74396 2.99756 10.4746 3.22207 11.0934 3.64203L16.3425 7.18437C16.8516 7.52743 17.2687 7.99026 17.5571 8.5322C17.8455 9.07415 17.9965 9.67863 17.9967 10.2925ZM14.2474 14.2541C14.2493 14.9436 14.1144 15.6266 13.8505 16.2636C13.5867 16.9006 13.1991 17.4789 12.7101 17.9651L10.0744 20.5431C9.78584 20.8225 9.39996 20.9787 8.99833 20.9787C8.59671 20.9787 8.21083 20.8225 7.92228 20.5431L5.29252 17.9711C4.68093 17.3614 4.22921 16.6103 3.97741 15.7842C3.7256 14.9582 3.68149 14.0828 3.84899 13.2356C4.01648 12.3884 4.39041 11.5957 4.93761 10.9276C5.48482 10.2595 6.18841 9.7368 6.98599 9.40573C7.78358 9.07466 8.65053 8.94549 9.50999 9.02967C10.3694 9.11385 11.1949 9.40877 11.9131 9.8883C12.6313 10.3678 13.22 11.0172 13.6272 11.7787C14.0344 12.5402 14.2474 13.3905 14.2474 14.2541ZM12.7476 14.2541C12.7476 13.6375 12.5956 13.0305 12.305 12.4867C12.0143 11.9429 11.5941 11.4792 11.0815 11.1367C10.5688 10.7941 9.97963 10.5832 9.36604 10.5228C8.75246 10.4623 8.13343 10.5541 7.56379 10.79C6.99415 11.0259 6.49147 11.3987 6.10029 11.8752C5.70911 12.3518 5.44149 12.9175 5.32115 13.5222C5.2008 14.1269 5.23144 14.7519 5.41035 15.342C5.58925 15.932 5.91091 16.4688 6.34683 16.9048L8.97134 19.4708L11.6558 16.8988C12.0035 16.5519 12.279 16.1396 12.4664 15.6857C12.6538 15.2317 12.7494 14.7452 12.7476 14.2541ZM11.2479 14.2488C11.2479 14.6937 11.116 15.1287 10.8688 15.4986C10.6216 15.8686 10.2703 16.1569 9.85921 16.3272C9.44815 16.4974 8.99584 16.542 8.55946 16.4552C8.12309 16.3684 7.72225 16.1541 7.40764 15.8395C7.09303 15.5249 6.87878 15.1241 6.79198 14.6877C6.70517 14.2513 6.74972 13.799 6.91999 13.3879C7.09026 12.9769 7.37859 12.6255 7.74853 12.3784C8.11847 12.1312 8.55341 11.9992 8.99833 11.9992C9.59496 11.9992 10.1672 12.2362 10.589 12.6581C11.0109 13.08 11.2479 13.6522 11.2479 14.2488Z" fill="#999894"/>
</svg>
